inDegrees=no
num_controls=7
num_derivatives=13
num_iterations=140
num_multipliers=7
num_parameters=0
num_slacks=7
num_states=26
objective=0.424787
objective_accelerations=0.058210
objective_balance=0.007171
objective_effort=0.035031
objective_height=0.323368
objective_ligament=0.001007
solver_duration=1751.866137
status=Solve_Succeeded
success=true
DataType=double
version=3
OpenSimVersion=4.5
endheader
time	/jointset/ground_pelvis/pelvis_tilt/value	/jointset/ground_pelvis/pelvis_tx/value	/jointset/ground_pelvis/pelvis_ty/value	/jointset/hip_l/hip_flexion_l/value	/jointset/hip_l/hip_adduction_l/value	/jointset/hip_l/hip_rotation_l/value	/jointset/back/lumbar_extension/value	/jointset/patellofemoral_l/patellar_flexion_l/value	/jointset/knee_l/knee_flexion_l/value	/jointset/knee_l/knee_adduction_l/value	/jointset/knee_l/knee_rotation_l/value	/jointset/ankle_l/ankle_angle_l/value	/jointset/subtalar_l/subtalar_angle_l/value	/jointset/ground_pelvis/pelvis_tilt/speed	/jointset/ground_pelvis/pelvis_tx/speed	/jointset/ground_pelvis/pelvis_ty/speed	/jointset/hip_l/hip_flexion_l/speed	/jointset/hip_l/hip_adduction_l/speed	/jointset/hip_l/hip_rotation_l/speed	/jointset/back/lumbar_extension/speed	/jointset/patellofemoral_l/patellar_flexion_l/speed	/jointset/knee_l/knee_flexion_l/speed	/jointset/knee_l/knee_adduction_l/speed	/jointset/knee_l/knee_rotation_l/speed	/jointset/ankle_l/ankle_angle_l/speed	/jointset/subtalar_l/subtalar_angle_l/speed	/forceset/tau_hip_flexion_l	/forceset/tau_hip_adduction_l	/forceset/tau_hip_rotation_l	/forceset/tau_knee_flexion_l	/forceset/tau_ankle_angle_l	/forceset/tau_subtalar_angle_l	/forceset/tau_lumbar_extension	lambda_cid13_p0	lambda_cid13_p1	lambda_cid13_p2	lambda_cid13_p3	lambda_cid13_p4	lambda_cid13_p5	lambda_cid14_p0	/jointset/ground_pelvis/pelvis_tilt/accel	/jointset/ground_pelvis/pelvis_tx/accel	/jointset/ground_pelvis/pelvis_ty/accel	/jointset/hip_l/hip_flexion_l/accel	/jointset/hip_l/hip_adduction_l/accel	/jointset/hip_l/hip_rotation_l/accel	/jointset/back/lumbar_extension/accel	/jointset/patellofemoral_l/patellar_flexion_l/accel	/jointset/knee_l/knee_flexion_l/accel	/jointset/knee_l/knee_adduction_l/accel	/jointset/knee_l/knee_rotation_l/accel	/jointset/ankle_l/ankle_angle_l/accel	/jointset/subtalar_l/subtalar_angle_l/accel	gamma_cid13_p0	gamma_cid13_p1	gamma_cid13_p2	gamma_cid13_p3	gamma_cid13_p4	gamma_cid13_p5	gamma_cid14_p0
0.5	-0.3520386159088227	-0.04244650507147193	0.7383314754239724	1.278495493254864	-0.3003863534095669	0.05282596769177032	-0.3347930205007966	0.9227937030834094	0.9227937030831934	-0.1727312775619505	0.1603759151345845	0.1855631577988241	-0.01074253864198657	-0.4689172745518027	-0.1712214183477924	-0.6236626376855426	2.416937344216796	0.05288969867742237	0.7760136190370939	-0.6165489387622088	2.386135010689531	2.386135010689674	-0.003484321001714383	0.06347686229324331	0.5728991623471609	0.1573521156598686	-0.2008508520588246	0.01240684580729049	-0.02559756592855153	-0.2731000089648973	0.1089324843016126	0.03747243844138426	0.1966241557136351	-2.768230158243216	-17.67092407465381	4.563753593476677	-3.941566480389783	-601.9777417090803	-59.38685546595492	-13.75168810376697	0.6829622915137277	0.6975713370348174	-0.5126019136046716	-1.532847942001142	0.7870043060736479	-0.3632582089479359	1.876737811785972	-1.640583255074582	-1.640583255074609	0.07413357853078212	-0.1093769737568597	-0.8699938678106319	0.8437555571934875	-4.690352281689445e-07	1.01608025294363e-07	3.81291092405218e-06	5.104083334730899e-07	-6.683178240059067e-07	3.555503931745925e-07	-5.190469274964945e-07
0.51	-0.3566926627958614	-0.04412368991730387	0.7320705672316207	1.302584544791376	-0.2998197627314156	0.06057032869273129	-0.3408645576207288	0.9465692673983765	0.9465692673983083	-0.1727670408631276	0.1610044503366393	0.1912471598643859	-0.009128788612296749	-0.4618339869079133	-0.164206550404961	-0.6283837768053037	2.400573428109353	0.06038734713297334	0.7727649482414378	-0.5977067374469397	2.36866919528411	2.368669195284147	-0.003665588650880461	0.06224676184329559	0.5637997118885837	0.1653566176341972	-0.2074497067235727	0.0122831778123208	-0.02551490601142786	-0.2767120636279189	0.1079335030369267	0.03718525991841632	0.2021357749590692	-3.389823682381196	-17.31290301635159	4.364507095069902	-3.685640652612772	-607.2943024152722	-59.13472889509482	-12.27334147094738	0.7297061388591155	0.7048959504968776	-0.4317150579028521	-1.733134432504207	0.7244198805686192	-0.3201425147162722	1.895723457991935	-1.845779064859739	-1.845779064875742	-0.06374441767698491	-0.1280887165443392	-0.9450878785451675	0.7721385099370044	-4.231434195271147e-07	1.878578510187389e-07	3.635569010910237e-06	4.951910180346708e-07	-6.234522487514659e-07	4.68405291385289e-07	-4.867208859401763e-07
0.52	-0.3612741379788548	-0.04573043579818958	0.7257664786187231	1.326500962969336	-0.2991795406156544	0.06827930878576732	-0.3467461202941894	0.9701609338829728	0.9701609338830514	-0.1728045143370041	0.1616210321070084	0.1968371339766291	-0.007436325364386749	-0.4544029337427212	-0.1571336253585459	-0.6322987217947077	2.382410672506374	0.06761598619941869	0.7689374374521079	-0.5785540494678887	2.349355444615333	2.349355444615262	-0.00382635554156781	0.06108617595613008	0.5540935716834501	0.1730947593039039	-0.2140485613883207	0.01215950981735121	-0.02543224609430507	-0.2803241182909406	0.1069345217722408	0.03689808139544853	0.2076473942045033	-4.016004313878989	-16.95350768988224	4.164392341732627	-3.450430197907139	-612.7037120903542	-58.97186588152234	-10.80972188043767	0.752515395774241	0.7091827577515714	-0.3513630875333008	-1.892615841108698	0.7332024282525231	-0.479026207682781	1.938835144542335	-2.010170307745875	-2.010170307745909	0.07823373022652913	-0.09547406119975763	-0.9913318171219669	0.7904834962690913	-3.786579913098216e-07	2.096282616976331e-07	3.447139476751103e-06	4.71680133033728e-07	-5.825065035939643e-07	5.530140590537051e-07	-4.581603071410888e-07
0.53	-0.3657796845539651	-0.04726626623762994	0.7194273102689106	1.350227052399323	-0.2984680953556562	0.07594625007621339	-0.3524347276101119	0.9935505305769279	0.9935505305769273	-0.1728422703346867	0.1622267262346897	0.2023271886726003	-0.00566749737109559	-0.4466547119630926	-0.1500327456877913	-0.6353955148814093	2.362522227272434	0.07464218209991436	0.7642904426817287	-0.5591325483496721	2.328272649794132	2.328272649794057	-0.003638013556244719	0.06008800376862535	0.543826909219029	0.1806404423649663	-0.2205637229727087	0.01173940316055854	-0.02524894995279387	-0.2838805763239975	0.1057040857926579	0.03667565713318553	0.2130335477171976	-4.716861047856198	-16.61011514426269	3.967916880452386	-3.081680082156632	-618.0932675967878	-58.91450344094722	-9.363741358452284	0.7937121128974368	0.7105899641966005	-0.2680346262093815	-2.07973601961141	0.6821892858091887	-0.4819669242992272	1.94903740049677	-2.200932094781409	-2.200932094781788	0.0022339657662502	-0.09736760696875336	-1.057836945379779	0.7316199948506267	-3.67742116459524e-07	1.20152286936005e-07	3.383940426392738e-06	4.645847513412602e-07	-5.857434537777932e-07	5.890278604175215e-07	-4.581443351805287e-07
0.54	-0.3702062016025112	-0.04873107800187131	0.7130613345468368	1.373745701945956	-0.2976874159136808	0.08356183525643895	-0.357928073953845	1.016720579717576	1.016720579717497	-0.1728755230058999	0.1628233628786075	0.2077118760470718	-0.003824210690428644	-0.438597028429853	-0.142929890318745	-0.6376601962469434	2.3409226958355	0.08146282259485393	0.7586662154079988	-0.5395018550300373	2.305445933953968	2.305445933953892	-0.002925690247679565	0.059274679203406	0.5330201073835036	0.1879864967790613	-0.2270788845570978	0.0113192965037661	-0.02506565381128414	-0.2874370343570544	0.1044736498130766	0.03645323287092281	0.2184197012298919	-5.422195146834053	-16.26584270850583	3.771194566424599	-2.732564131983731	-623.5690669481723	-58.93993195396624	-7.943083445517009	0.8144077464964687	0.7095778974099001	-0.1849407432997461	-2.234833081707668	0.6920913471412994	-0.6744727083529707	1.980673584825971	-2.358954511538022	-2.358954511537949	0.1830299948749405	-0.05850453674245513	-1.099359691342844	0.7505577668756113	-3.939670240578178e-07	-9.240479512152139e-08	3.459294251728844e-06	4.756512030964672e-07	-6.378633860413926e-07	5.71277018210291e-07	-4.897096303604673e-07
